# xmcd
#
# Track frame offsets:
# 150
# 17555
# 28892
# 41629
# 57016
# 67851
# 78123
# 92635
# 104410
# 120045
# 133620
# 144293
# 156246
# 171373
# 181325
# 197750
# 210650
# 223775
#
# Disc length: 3151 seconds
#
#
# Revision: 0
# Processed by: cddbd v1.5.2PL0 Copyright (c) Steve Scherf et al.
# Submitted via: FreeRIP 2.90 
#
DISCID=ef0c4d12
DTITLE=Various Artist - Good Ole Boys/Bad Girls - Disc 2
DYEAR=1900
DGENRE=Country
TTITLE0=Baby I Lied - Deborah Allen
TTITLE1=Single Girl - Sandy Posey
TTITLE2=Rose Garden - Lynn Anderson
TTITLE3=Daddy's Hands - Holly Dunn
TTITLE4=(It Wasn't God Who Made) Honky Tonk Angels - Dolly parton
TTITLE5=My Last Date (With You) - Skeeter Davis
TTITLE6=Coal Miner's Daughter - Loretta Lynn
TTITLE7=Stand By Your Man - Tammy Wynette
TTITLE8=There Goes My Everything - Anne Murray
TTITLE9=You Don't Have To Say You Love Me - Brenda Lee
TTITLE10=Crazy - Patsy Cline
TTITLE11=Misty Blue - Billie Jo Spears
TTITLE12=Slippin' Away - Barbara Fairchild
TTITLE13=Sticks and Stones - Donna Fargo
TTITLE14=Loving Him Was Easier - Marie O'Brien
TTITLE15=Let's Love The Bad Times Away - Jo Ann Houston
TTITLE16=D-I-V-O-R-C-E - Dottie West
TTITLE17=You're My Best Friend - Cindy morgan
EXTD=
EXTT0=
EXTT1=
EXTT2=
EXTT3=
EXTT4=
EXTT5=
EXTT6=
EXTT7=
EXTT8=
EXTT9=
EXTT10=
EXTT11=
EXTT12=
EXTT13=
EXTT14=
EXTT15=
EXTT16=
EXTT17=
PLAYORDER=
